# xmcd
#
# Track frame offsets:
#	150
#	14735
#	29689
#	46042
#	56963
#	69809
#	81447
#	95184
#	117115
#	128894
#
# Disc length: 1871
#
# Revision: 1
# Processed by: cddbd v1.5.1PL0 Copyright (c) Steve Scherf et al.
# Submitted via: dBpowerAMP V4.0
# Normalized: r0:TRMNUM
#
DISCID=8c074d0a
DTITLE=Willie Nelson - Georgia On My Mind
DYEAR=1900
DGENRE=Country
TTITLE0=Will You Remember Me
TTITLE1=And So Will You My Love
TTITLE2=Georgia On My Mind
TTITLE3=Go Away
TTITLE4=To All The Girls I've Loved Before
TTITLE5=Is There Something On Your Mind
TTITLE6=Everything But You
TTITLE7=City Of New Orleans
TTITLE8=Happiness Lives Next Door
TTITLE9=Some Other Times
EXTD=
EXTT0=
EXTT1=
EXTT2=
EXTT3=
EXTT4=
EXTT5=
EXTT6=
EXTT7=
EXTT8=
EXTT9=
PLAYORDER=
